<?xml version="1.0" encoding="UTF-8" standalone="no"?>
<!-- Created with Inkscape (http://www.inkscape.org/) -->

<svg
   width="79.373528mm"
   height="29.872934mm"
   viewBox="0 0 79.373528 29.872934"
   version="1.1"
   id="svg1"
   xml:space="preserve"
   inkscape:version="1.3.2 (091e20e, 2023-11-25, custom)"
   sodipodi:docname="gg-logo.svg"
   xmlns:inkscape="http://www.inkscape.org/namespaces/inkscape"
   xmlns:sodipodi="http://sodipodi.sourceforge.net/DTD/sodipodi-0.dtd"
   xmlns:xlink="http://www.w3.org/1999/xlink"
   xmlns="http://www.w3.org/2000/svg"
   xmlns:svg="http://www.w3.org/2000/svg"><sodipodi:namedview
     id="namedview1"
     pagecolor="#ffffff"
     bordercolor="#cccccc"
     borderopacity="1"
     inkscape:showpageshadow="0"
     inkscape:pageopacity="1"
     inkscape:pagecheckerboard="0"
     inkscape:deskcolor="#d1d1d1"
     inkscape:document-units="mm"
     inkscape:zoom="1.4614334"
     inkscape:cx="362.99978"
     inkscape:cy="555.6189"
     inkscape:window-width="2560"
     inkscape:window-height="1369"
     inkscape:window-x="1912"
     inkscape:window-y="-8"
     inkscape:window-maximized="1"
     inkscape:current-layer="layer1" /><defs
     id="defs1"><linearGradient
       id="Gradient_1"
       gradientUnits="userSpaceOnUse"
       x1="-468.71249"
       y1="-63.799999"
       x2="-470.88751"
       y2="45"
       spreadMethod="pad"><stop
         offset="50.19607843137255%"
         stop-color="#4DB700"
         id="stop1" /><stop
         offset="77.6470588235294%"
         stop-color="#70D621"
         id="stop2" /><stop
         offset="100%"
         stop-color="#B4FF70"
         id="stop3" /></linearGradient><linearGradient
       id="Gradient_2"
       gradientUnits="userSpaceOnUse"
       x1="-74.212502"
       y1="-50.037498"
       x2="-75.087502"
       y2="1.8375"
       spreadMethod="pad"><stop
         offset="0%"
         stop-color="#FFFFFF"
         stop-opacity="0.047058823529411764"
         id="stop4" /><stop
         offset="100%"
         stop-color="#FFFFFF"
         stop-opacity="0.2"
         id="stop5" /></linearGradient><g
       id="Layer0_0_FILL"><path
         fill="#ffffff"
         stroke="none"
         d="m -82.3,-49.65 h -0.15 q -5.75,0 -13.7,2.05 H -96 q -16.45,3.85 -26.3,11.4 -1.15,0.55 -2,1.4 h -0.15 q -24.3,19.8 -25.45,44.9 -0.85,13.7 4.35,24.1 4.9,10.1 13.85,14.6 7.4,3.85 18.2,6.05 10,1.7 20.95,1.6 11.3,-0.3 17.9,-3.8 v 0.15 q 6.95,-3.3 10.7,-10.8 l -0.15,0.15 q 3.35,-5.95 1.9,-16.75 l 0.15,-0.15 q -1,-4.9 -3.5,-14.45 -2.15,-8.05 -3,-10.95 V 0 q -1.45,-4.45 -3.75,-6.8 2.45,-2.6 2.85,-6.2 1.6,-8.2 1.9,-15.85 V -29 q 0,-0.75 0,-1.45 0.15,-11.1 -3.2,-15 -2.15,-4.5 -11.55,-4.2 z"
         id="path5" /></g><g
       id="Layer0_1_FILL"><path
         fill="#ffffff"
         stroke="none"
         d="M 4.5,-13.85 4.65,-14 q 1.45,-3.05 2.9,-4.35 1.45,-1.15 1.9,-3 1,-3.2 -0.6,-8.8 -1.15,-3.6 -3.15,-8.1 -5.95,-13 -13.45,-16 -4.05,-2.2 -14,-2.2 h -0.15 q -8.55,0 -18.35,1.6 -10.4,1.45 -17.5,4.05 h -0.1 q -10.55,3.6 -12.45,8.35 -2.15,3.5 -3.15,11.4 -0.75,5.5 -0.9,13.3 -0.3,13.4 1.15,24.7 0.9,9.5 3.9,23.8 3.75,18.45 6.65,20.35 2.75,3.6 15.6,3.9 12.3,0.25 15.75,-2.45 0,-0.15 0.15,-0.15 1.45,-0.75 2.3,-2.2 3.45,3.9 5.8,4.05 h 0.15 q 4.15,1.6 19.2,-4.3 17.05,-6.8 16.75,-12.15 v -0.15 q 0.85,-2.3 -2.75,-8.5 -3.05,-4.9 -4.75,-8.1 L 5.7,21.2 Q -0.55,10.4 -0.1,1.9 0.5,-7.2 4.5,-13.85 m -40.15,-6.05 0.15,0.15 h -0.15 v -0.15 m -1.55,1.45 -0.15,-0.6 q 0.25,-0.15 0.55,-0.15 -0.3,0.3 -0.4,0.75 z"
         id="path6" /></g><g
       id="Layer0_2_FILL"><path
         fill="#ffffff"
         stroke="none"
         d="M 8.55,-33.5 Q 7.7,-32.6 7.1,-31.45 -4,-17.3 -4.3,4.35 -4.3,26.4 10,41 q 14.6,14.85 36.4,15.15 20.95,0.3 35.85,-14.9 l 0.1,-0.1 q 13.6,-14 15.5,-33.05 1,-9.25 -1.6,-19.35 -2.75,-10.25 -8.4,-18.6 -0.3,-0.45 -0.55,-0.75 -0.15,-0.15 -0.3,-0.3 l 0.45,0.75 Q 72.85,-51.1 47.85,-50.65 22.6,-50.1 8.55,-33.5 m 26.75,24 h -0.15 q 1.15,-1.2 3.05,-1.05 h 0.1 q 1.75,0.15 2.75,1.45 0.15,0 0.15,0.15 1.15,1.9 1.15,4.9 0.15,2.45 -1.45,4.2 -1.15,1.45 -3,1.45 -1.9,0 -3.05,-1.3 -1.3,-1.75 -1.3,-4.65 0.15,-3.15 1.75,-5.15 z"
         id="path7" /></g><g
       id="Layer0_3_FILL"><path
         fill="#ffffff"
         stroke="none"
         d="m 112.55,-0.6 q -2.75,-1.4 -8.8,-1.4 -6.65,0.25 -9.1,2.3 -3.6,1.45 -4.2,9.1 -0.4,5.2 -1.45,8.95 -1.15,3.75 -4.9,9.8 -5.5,8.5 -4.05,11.8 v -0.1 q 0.0023,0.102344 0.15,0.25 0.6,4.65 6.5,7.8 3.45,1.9 8.25,2.3 15.15,1.75 18.5,-1.7 0.1,-0.15 0.25,-0.15 1.6,-1 2.6,-4.5 1.05,4.5 3.5,5.65 h 0.15 l 0.1,0.15 q 2.6,2.3 8.1,1.85 h 0.6 q 4.2,-0.25 8.65,-2.6 8.55,-3.85 10.85,-7.05 3.45,-2.6 0,-12.85 -2.3,-6.5 -5.95,-12.7 -3.6,-5.5 -7.65,-9.25 Q 134.25,6.65 133.8,6.2 128,1.3 124.1,2 h -0.15 q -2.85,-0.4 -5.6,3.5 -3.5,-5.35 -5.5,-5.95 l 0.1,0.1 q -0.11855,-0.10917969 -0.4,-0.25 z"
         id="path8" /></g><g
       id="Layer0_4_FILL"><path
         fill="url(#Gradient_1)"
         stroke="none"
         d="m -118.95,-31.75 q -1.05,0.7 -1.9,1.45 -21.95,18.05 -23.25,40.7 -0.75,12.1 3.6,21.2 4.2,8.35 11.4,12.15 6.8,3.45 16.65,5.3 9.5,1.75 19.75,1.6 9.7,-0.15 15.45,-3.05 5.2,-2.55 7.95,-8.2 2.45,-4.6 1.3,-13.3 -0.7,-4.6 -3.15,-13.85 -2.05,-7.8 -2.9,-10.5 -1.6,-4.5 -3.9,-5.65 -2.9,-1.45 -11.85,2.45 -9.1,4.05 -9.55,7.35 -0.4,1.75 -0.1,4.9 0,1.75 -1.3,2.5 -1.6,0.85 -5.2,-2.6 -3.8,-3.75 -3.2,-6.35 0.6,-2.6 5.65,-5.95 4.45,-2.85 8.35,-4.15 2.3,-0.75 11,-1.9 7.95,-1.6 8.95,-6.5 1.6,-7.8 1.85,-15 0,-0.7 0,-1.45 0.15,-8.5 -2.15,-11.55 -1.3,-1.85 -6.8,-1.7 -5.2,0 -12.4,1.7 -15.15,3.75 -24.25,10.4 m 247.1,77.5 q 3.35,-0.45 6.8,-2 7.35,-3.5 8.8,-5.8 0.9,-1.15 -1.15,-7.05 -2,-5.95 -5.35,-11.55 -3.3,-5.2 -7.2,-8.65 -3.6,-3.05 -5.65,-2.9 -1.3,0.15 -3.15,3.6 -2.2,3.6 -3.05,3.6 -1.15,0 -3.9,-4.75 -2.9,-4.9 -4.05,-5.5 -1.9,-1 -6.35,-1 -4.65,0.3 -6.2,1.3 -1.15,0.85 -1.45,4.75 -0.45,5.95 -1.75,10.1 -1.3,4.35 -5.65,11.25 -3.45,5.65 -3.15,7.55 0.45,2.3 3.75,4 2.6,1.45 6.05,1.75 12.6,1.45 14.3,-0.45 1.15,-1.15 1.6,-6.9 l 0.3,-5.5 1.85,2 q 1.75,2.2 2.5,2.2 0.7,0 2.6,-2.2 1.7,-2 2.15,-1.7 0.3,0.3 0.55,6.05 0.45,5.8 1.75,6.8 1.6,1.3 5.05,1 M 12.9,-29.85 q -0.6,0.7 -1,1.4 -10.1,13 -10.4,32.8 0,19.6 12.7,32.6 12.85,13.15 32.2,13.4 18.65,0.3 31.8,-13.25 12.1,-12.55 13.85,-29.6 0.85,-8.35 -1.6,-17.3 -2.3,-9.25 -7.5,-16.75 -0.15,-0.15 -0.3,-0.3 Q 69.95,-45.3 48,-44.9 25.45,-44.45 12.9,-29.85 m 17.9,16.7 q 3.05,-3.75 7.95,-3.15 4.75,0.45 7.25,4.05 2,3 2.15,7.9 0.15,4.65 -2.6,8.1 -3.2,3.75 -7.8,3.6 Q 33,7.2 30.4,4.05 27.65,0.7 27.8,-4.45 q 0.1,-5.35 3,-8.7 m -27,-9.5 q 0.6,-2.15 -0.6,-5.9 -0.85,-3.2 -2.7,-7.4 -4.95,-10.5 -10.7,-13.25 -3.35,-1.45 -11.7,-1.45 -8.1,0 -17.5,1.45 -9.8,1.45 -16.6,3.75 -7.8,2.75 -9.25,5.75 -1.7,2.9 -2.45,9.25 -0.7,5.35 -0.85,12.85 -0.3,13 1,23.8 0.85,9.4 3.9,23.4 3.2,15.55 5.05,17.3 2,2.15 11.7,2.3 9.55,0.3 12.3,-1.6 1.85,-1.3 0.55,-7.65 -1.45,-6.35 -0.7,-7.05 0.85,-0.7 5.45,6.95 5.2,8.2 7.7,8.95 3.3,0.7 15.7,-4.35 Q 6.7,39.55 7.25,36.8 7.4,35.65 5.4,32.05 2.2,27.15 0.5,23.95 -6.6,11.4 -5.9,1.45 -5.15,-9.1 -0.55,-16.9 1.8,-20.95 3.8,-22.65 m -46.35,7.8 -1.15,-8.1 q 1.85,-1.85 6.75,-2 4.95,-0.15 6.25,2.15 1.3,2 -2.9,8.95 -4.05,7.05 -6.1,6.9 -1.7,0 -2.85,-7.9 z"
         id="path9" /></g><g
       id="Layer0_4_MEMBER_0_FILL"><path
         fill="url(#Gradient_2)"
         stroke="none"
         d="m -95.7,-8.8 q 2.45,-0.7 11.25,-1.9 0.15,0 0.45,0 5.05,-1.3 5.9,-4.15 1.6,-7.5 1.9,-14.45 0,-0.7 0,-1.45 0.15,-7.05 -1.45,-9.8 -1.15,-0.7 -4.65,-0.6 -4.9,0 -11.7,1.75 -14.55,3.45 -23.25,9.95 -0.85,0.6 -1.7,1.15 -16.35,13.45 -20.7,29.6 4.65,-1.45 9.55,-2.15 10.1,-1.15 19.35,1.7 1.6,-2.3 5.5,-4.9 0.15,-0.15 0.3,-0.15 4.75,-3 8.8,-4.6 0.15,0 0.45,0 m 207.55,20.5 q -2.45,-4.2 -3.2,-4.65 v -0.1 q -1.45,-0.45 -4.6,-0.45 -3.2,0.15 -4.5,0.85 -0.4,0.9 -0.4,2.6 -0.45,6.2 -1.9,10.55 0,0.3 -0.15,0.55 9.7,-2.45 19.95,-3.3 -2.2,-1.15 -5.2,-6.05 m 16.3,1 q -2,-1.75 -3.15,-2 -0.45,0.55 -1.15,2 -0.15,0.15 -0.3,0.3 -2.05,3.45 -3.6,4.45 6.5,-0.55 13,0.45 -2.35,-3.05 -4.65,-5.05 L 128.15,12.7 M 1.05,-24.25 Q 1.2,-25.7 0.5,-28 q -0.9,-2.9 -2.75,-6.8 -4.2,-9.35 -9.25,-11.95 -2.75,-1.3 -10.25,-1.15 h -0.15 q -7.95,0 -17.05,1.45 -9.4,1.55 -16.2,3.6 -6.2,2.15 -7.5,4.45 v -0.15 q -1.45,2.75 -2.15,8.4 -0.75,5.2 -0.85,12.55 -0.3,10.1 0.55,18.75 5.35,-2.15 11.7,-2.6 h 0.15 q 5.9,-0.3 11.85,-0.55 11.7,-0.45 22.95,1.55 5.05,0.9 9.7,2.75 0,-0.55 0,-1.15 0.7,-10.95 5.45,-19.05 0,-0.3 0.15,-0.45 2.2,-3.75 4.2,-5.9 m -47.65,1.6 q -0.15,-0.75 0.15,-1.3 v 0.15 q 0.15,-0.75 0.55,-1.15 2.6,-2.9 8.95,-3.05 6.95,0 8.7,3.45 2.6,3.05 -2.75,12.15 -5.2,8.8 -8.7,8.2 h -0.1 q -3.9,0.45 -5.65,-10.4 v -0.1 l -1.15,-7.95 M 15.2,-28 q -0.15,0.15 -0.3,0.3 -0.25,0.3 -0.4,0.7 -0.15,0 -0.15,0.15 L 14.2,-26.7 Q 5.8,-16 4.65,-0.45 q 6.65,-2.7 14.15,-2.7 3.2,0.1 6.25,0.55 -0.15,-1 -0.15,-2 0.15,-6.5 3.6,-10.55 l 0.15,-0.15 q 4.05,-4.6 10.4,-4.05 h 0.15 q 6.2,0.6 9.25,5.5 2.45,3.45 2.6,9.25 0,0.15 0,0.4 6.75,-2 14.3,-1.85 11.55,0 22.5,4.05 0.15,0 0.3,0 0.45,0.1 1,0.4 -0.3,-3.75 -1.45,-7.5 0,-0.15 0,-0.4 -2.15,-8.55 -6.9,-15.45 L 80.35,-25.4 Q 68.5,-42.45 48.15,-42.15 27.05,-41.55 15.2,-28 Z"
         id="path10" /></g><path
       id="Layer0_4_1_STROKES"
       stroke="#195209"
       stroke-width="2"
       stroke-linejoin="round"
       stroke-linecap="round"
       fill="none"
       d="m 0.5,-35.95 q -4.95,-10.5 -10.7,-13.25 -3.35,-1.45 -11.7,-1.45 -8.1,0 -17.5,1.45 -9.8,1.45 -16.6,3.75 -7.8,2.75 -9.25,5.75 -1.7,2.9 -2.45,9.25 -0.7,5.35 -0.85,12.85 -0.3,13 1,23.8 0.85,9.4 3.9,23.4 3.2,15.55 5.05,17.3 2,2.15 11.7,2.3 9.55,0.3 12.3,-1.6 1.85,-1.3 0.55,-7.65 -1.45,-6.35 -0.7,-7.05 0.85,-0.7 5.45,6.95 5.2,8.2 7.7,8.95 3.3,0.7 15.7,-4.35 Q 6.7,39.55 7.25,36.8 7.4,35.65 5.4,32.05 2.2,27.15 0.5,23.95 -6.6,11.4 -5.9,1.45 -5.15,-9.1 -0.55,-16.9 q 2.35,-4.05 4.35,-5.75 0.6,-2.15 -0.6,-5.9 -0.85,-3.2 -2.7,-7.4 z m 30.3,22.8 q 3.05,-3.75 7.95,-3.15 4.75,0.45 7.25,4.05 2,3 2.15,7.9 0.15,4.65 -2.6,8.1 -3.2,3.75 -7.8,3.6 Q 33,7.2 30.4,4.05 27.65,0.7 27.8,-4.45 q 0.1,-5.35 3,-8.7 z m -17.9,-16.7 q 12.55,-14.6 35.1,-15.05 21.95,-0.4 34.65,18.05 0.15,0.15 0.3,0.3 5.2,7.5 7.5,16.75 2.45,8.95 1.6,17.3 Q 90.3,24.55 78.2,37.1 65.05,50.65 46.4,50.35 27.05,50.1 14.2,36.95 1.5,23.95 1.5,4.35 q 0.3,-19.8 10.4,-32.8 0.4,-0.7 1,-1.4 z m 115.25,75.6 q 3.35,-0.45 6.8,-2 7.35,-3.5 8.8,-5.8 0.9,-1.15 -1.15,-7.05 -2,-5.95 -5.35,-11.55 -3.3,-5.2 -7.2,-8.65 -3.6,-3.05 -5.65,-2.9 -1.3,0.15 -3.15,3.6 -2.2,3.6 -3.05,3.6 -1.15,0 -3.9,-4.75 -2.9,-4.9 -4.05,-5.5 -1.9,-1 -6.35,-1 -4.65,0.3 -6.2,1.3 -1.15,0.85 -1.45,4.75 -0.45,5.95 -1.75,10.1 -1.3,4.35 -5.65,11.25 -3.45,5.65 -3.15,7.55 0.45,2.3 3.75,4 2.6,1.45 6.05,1.75 12.6,1.45 14.3,-0.45 1.15,-1.15 1.6,-6.9 l 0.3,-5.5 1.85,2 q 1.75,2.2 2.5,2.2 0.7,0 2.6,-2.2 1.7,-2 2.15,-1.7 0.3,0.3 0.55,6.05 0.45,5.8 1.75,6.8 1.6,1.3 5.05,1 z m -247.1,-77.5 q -1.05,0.7 -1.9,1.45 -21.95,18.05 -23.25,40.7 -0.75,12.1 3.6,21.2 4.2,8.35 11.4,12.15 6.8,3.45 16.65,5.3 9.5,1.75 19.75,1.6 9.7,-0.15 15.45,-3.05 5.2,-2.55 7.95,-8.2 2.45,-4.6 1.3,-13.3 -0.7,-4.6 -3.15,-13.85 -2.05,-7.8 -2.9,-10.5 -1.6,-4.5 -3.9,-5.65 -2.9,-1.45 -11.85,2.45 -9.1,4.05 -9.55,7.35 -0.4,1.75 -0.1,4.9 0,1.75 -1.3,2.5 -1.6,0.85 -5.2,-2.6 -3.8,-3.75 -3.2,-6.35 0.6,-2.6 5.65,-5.95 4.45,-2.85 8.35,-4.15 2.3,-0.75 11,-1.9 7.95,-1.6 8.95,-6.5 1.6,-7.8 1.85,-15 0,-0.7 0,-1.45 0.15,-8.5 -2.15,-11.55 -1.3,-1.85 -6.8,-1.7 -5.2,0 -12.4,1.7 -15.15,3.75 -24.25,10.4 z m 75.25,8.8 q 1.85,-1.85 6.75,-2 4.95,-0.15 6.25,2.15 1.3,2 -2.9,8.95 -4.05,7.05 -6.1,6.9 -1.7,0 -2.85,-7.9 z" /></defs><g
     inkscape:label="Layer 1"
     inkscape:groupmode="layer"
     id="layer1"
     transform="translate(-34.819001,-136.2792)"><g
       id="g1"
       transform="matrix(0.26458333,0,0,0.26458333,74.511641,151.21493)"
       inkscape:export-filename="..\..\Projects\Template\assets\grom-logo.png"
       inkscape:export-xdpi="128.00237"
       inkscape:export-ydpi="128.00237"><g
         id="g10"><use
           xlink:href="#Layer0_0_FILL"
           id="use10" /></g><g
         id="g11"><use
           xlink:href="#Layer0_1_FILL"
           id="use11" /></g><g
         id="g12"><use
           xlink:href="#Layer0_2_FILL"
           id="use12" /></g><g
         id="g13"><use
           xlink:href="#Layer0_3_FILL"
           id="use13" /></g><g
         id="g15"><use
           xlink:href="#Layer0_4_FILL"
           id="use14" /><use
           xlink:href="#Layer0_4_1_STROKES"
           id="use15" /></g><g
         id="g16"><use
           xlink:href="#Layer0_4_MEMBER_0_FILL"
           id="use16" /></g></g></g></svg>
